<?xml version="1.0" standalone="no"?>
<!DOCTYPE svg PUBLIC "-//W3C//DTD SVG 20010904//EN"
 "http://www.w3.org/TR/2001/REC-SVG-20010904/DTD/svg10.dtd">
<svg version="1.0" xmlns="http://www.w3.org/2000/svg"
 width="1794.000000pt" height="658.000000pt" viewBox="0 0 1794.000000 658.000000"
 preserveAspectRatio="xMidYMid meet">

<g transform="translate(0.000000,658.000000) scale(0.100000,-0.100000)"
fill="#000000" stroke="none">
<path d="M7085 6007 c-4 -10 -5 -21 -1 -24 10 -10 18 4 13 24 -4 17 -4 17 -12
0z"/>
<path d="M7080 5890 c0 -22 4 -40 9 -40 13 0 21 39 9 46 -5 3 -7 12 -4 20 3 8
1 14 -4 14 -6 0 -10 -18 -10 -40z"/>
<path d="M7079 5793 c-1 -27 -1 -97 0 -157 0 -60 -4 -117 -10 -127 -6 -11 -6
-20 1 -24 11 -7 3 -114 -10 -130 -6 -7 -6 -15 1 -22 6 -6 9 -58 7 -128 l-3
-119 -60 -16 c-94 -24 -105 -33 -105 -85 0 -39 -3 -45 -24 -51 -26 -6 -26 -10
-46 -354 -24 -418 -41 -719 -51 -875 -12 -201 -24 -421 -38 -675 -6 -102 -13
-208 -17 -236 l-6 -51 -101 -6 c-93 -5 -110 -9 -196 -49 l-93 -43 6 -127 c4
-69 3 -128 -1 -131 -4 -2 -42 4 -83 15 -166 43 -156 43 -240 -6 l-75 -43 -5
-634 -5 -634 -132 -3 -133 -3 0 -54 c0 -54 0 -55 -30 -55 -29 0 -29 0 -32 68
-3 65 -4 67 -30 70 -26 3 -27 1 -30 -50 -3 -49 -5 -53 -28 -53 l-25 0 -3 449
c-2 411 -4 451 -20 469 -10 11 -19 42 -22 73 -3 30 -8 54 -12 54 -5 0 -35 0
-68 0 l-60 0 0 -52 c0 -37 -6 -61 -20 -78 -17 -22 -20 -41 -20 -155 0 -125 -1
-132 -27 -170 -15 -22 -35 -49 -45 -59 -16 -18 -18 -44 -18 -306 0 -303 -1
-310 -47 -310 -22 0 -23 -3 -23 -89 0 -50 -4 -93 -10 -96 -7 -4 -10 67 -10
204 0 200 -1 211 -20 223 -14 9 -20 24 -20 51 0 23 -4 36 -10 32 -5 -3 -10
-19 -10 -34 0 -31 -23 -57 -40 -46 -6 4 -10 93 -10 255 0 155 -4 251 -10 255
-5 3 -10 47 -10 97 0 76 -2 89 -15 84 -18 -7 -18 -7 -19 119 -1 89 -3 100 -18
97 -16 -2 -18 6 -19 65 -2 89 -10 127 -30 131 -13 2 -18 -15 -28 -100 -6 -56
-16 -107 -21 -112 -6 -6 -10 -52 -10 -104 0 -80 -2 -93 -15 -88 -13 5 -15 -10
-15 -100 0 -98 -1 -105 -18 -99 -18 5 -19 -4 -19 -165 -1 -154 -4 -192 -17
-179 -2 2 -7 228 -10 503 -4 426 -7 502 -21 522 -8 13 -15 44 -15 69 0 45 0
45 -35 45 -34 0 -35 -1 -35 -40 l0 -40 -59 0 c-100 0 -91 39 -91 -399 0 -322
-2 -390 -15 -407 -14 -21 -16 -58 -30 -561 -5 -167 -9 -203 -21 -204 -8 -1
-26 -2 -41 -3 l-28 -1 -3 332 -2 332 -63 3 -62 3 -3 88 -3 87 -33 0 c-27 0
-38 -7 -64 -44 -28 -38 -32 -53 -32 -105 l0 -60 -47 -3 -48 -3 -3 -392 -2
-393 -25 0 c-25 0 -25 1 -25 94 0 81 -2 94 -17 98 -10 3 -25 18 -33 34 -8 16
-19 32 -25 36 -19 14 -56 8 -61 -9 -18 -53 -31 -73 -46 -73 -15 0 -18 -9 -18
-58 0 -36 -6 -66 -15 -78 -9 -12 -14 -43 -15 -86 0 -68 -7 -79 -43 -70 -14 3
-17 13 -15 36 l3 31 -62 3 c-61 3 -62 3 -65 -25 -2 -20 -9 -28 -23 -28 -19 0
-20 7 -20 143 l1 142 -48 0 -48 0 0 -82 c0 -89 -9 -115 -34 -105 -14 6 -16 34
-16 224 0 215 0 218 -22 228 -21 10 -22 15 -19 118 2 101 1 107 -17 107 -30 0
-94 76 -92 108 4 54 8 52 -122 52 l-123 0 -27 -44 c-28 -42 -28 -46 -28 -205
l0 -161 -40 0 -40 0 0 145 0 145 -25 10 c-23 9 -25 14 -25 80 l0 70 -30 0 -30
0 0 -86 c0 -77 -2 -86 -20 -91 -16 -4 -20 -15 -22 -66 -3 -56 -5 -62 -28 -67
-25 -6 -25 -7 -30 -145 l-6 -140 -2 116 c-1 64 -5 157 -8 207 l-7 91 -101 3
-101 3 -2 185 -2 185 -205 3 -206 2 0 -190 0 -190 -100 0 -100 0 0 -351 c0
-328 -1 -350 -17 -347 -15 3 -19 18 -23 88 l-5 85 -57 3 -58 3 -2 302 -3 302
-100 3 c-55 2 -110 0 -123 -3 l-22 -5 0 -300 0 -299 -118 -3 -117 -3 -3 -108
-3 -108 -77 3 -77 3 -3 518 c-2 509 -2 517 -22 517 -19 0 -20 7 -20 255 l0
255 -205 0 -205 0 -2 -427 -3 -428 -180 -5 -180 -5 -5 -405 -5 -405 -37 -3
-38 -3 0 -240 0 -239 8970 0 8970 0 0 685 0 686 -77 -3 -78 -3 -3 -252 -2
-252 -86 -123 c-47 -68 -88 -123 -92 -123 -4 0 -9 160 -12 355 l-5 355 -25
-45 -25 -45 -132 -3 -132 -3 -88 130 -88 130 -257 1 -257 0 -3 -132 -3 -133
-184 0 -184 0 1 135 c1 74 -1 143 -4 153 -5 15 -19 17 -115 17 l-109 0 0 195
0 195 -40 0 -40 0 0 -150 0 -149 -65 -3 -66 -3 -2 -475 -2 -475 -195 0 -195 0
-2 350 -3 350 -197 0 -198 0 -5 -215 -5 -215 -130 0 -130 0 -3 218 -2 217
-165 0 -165 0 -2 -182 -3 -183 -120 0 -120 0 -3 203 c-2 171 -5 208 -19 230
-10 15 -20 29 -23 32 -3 3 -32 42 -64 87 -31 46 -60 83 -64 83 -4 0 -20 -21
-36 -46 -16 -25 -34 -50 -40 -57 -41 -43 -45 -63 -48 -224 l-3 -158 -75 0 -75
0 -3 248 -2 247 -114 0 -113 0 -7 -52 c-3 -29 -6 -119 -6 -199 0 -80 -3 -194
-7 -253 -5 -89 -8 -105 -19 -94 -8 7 -21 47 -29 88 -9 41 -20 92 -25 113 -20
76 -31 123 -37 149 -4 21 -15 30 -55 43 -50 16 -60 15 -64 -8 -2 -7 -8 -34
-14 -62 -6 -27 -15 -68 -20 -90 -5 -22 -13 -58 -19 -80 -5 -22 -14 -56 -18
-75 -8 -34 -11 -35 -53 -35 l-45 0 -8 340 c-5 187 -10 346 -12 353 -3 9 -41
12 -141 12 l-137 0 5 -225 5 -225 -64 0 -63 0 0 79 c0 44 -4 101 -9 128 -6 26
-15 84 -20 128 -18 133 -41 306 -51 378 -6 37 -14 99 -20 137 -5 38 -14 100
-20 137 -5 38 -17 124 -25 193 -9 69 -20 147 -25 173 -6 27 -10 65 -11 85 l-1
37 -9 -30 c-5 -16 -13 -75 -19 -130 -13 -125 -49 -442 -70 -615 -5 -41 -13
-115 -19 -165 -5 -49 -17 -152 -25 -227 -14 -123 -14 -146 -1 -215 8 -43 15
-81 15 -85 0 -5 -16 -8 -35 -8 l-35 0 0 285 c0 219 -3 287 -12 290 -7 3 -42 9
-78 14 -36 5 -73 13 -84 17 -17 6 -18 3 -13 -32 13 -83 26 -160 32 -180 9 -28
-4 -35 -46 -25 -19 5 -49 12 -68 15 l-34 6 9 -167 c4 -93 8 -199 9 -238 l0
-70 -97 -3 -96 -3 -31 33 c-17 18 -31 39 -31 46 0 6 -4 12 -8 12 -4 0 -16 15
-27 32 -30 52 -77 108 -86 102 -4 -2 -43 -55 -86 -117 l-78 -112 -2 -84 c-1
-45 -4 -86 -7 -89 -3 -2 -39 -4 -79 -3 -92 2 -99 -4 -96 -94 1 -36 -2 -70 -8
-76 -5 -5 -41 -9 -79 -7 l-69 3 -3 232 -2 233 -74 0 -75 0 -7 56 -7 56 -51 -6
c-28 -3 -79 -6 -113 -6 l-62 0 -3 -52 -3 -53 -77 -3 -77 -3 -3 -152 -3 -152
-25 3 c-32 3 -40 12 -51 56 -5 20 -13 51 -18 69 -6 17 -16 54 -23 82 -15 54
-22 52 -33 -10 -4 -22 -11 -44 -15 -50 -7 -9 -13 -36 -27 -113 -3 -18 -9 -35
-14 -38 -14 -8 -19 31 -27 186 l-7 145 -43 3 -42 3 1 57 c2 44 -3 66 -21 97
-13 22 -32 57 -43 78 l-21 37 -128 0 -129 0 -34 -75 c-19 -41 -35 -79 -35 -84
0 -12 -29 -23 -41 -15 -5 3 -9 -31 -9 -78 0 -90 -5 -104 -35 -109 -17 -4 -20
-13 -23 -72 -3 -73 -3 -73 -69 -80 l-43 -5 -2 171 c-3 163 -4 172 -23 175 -11
1 -39 8 -62 14 l-43 11 0 106 c0 70 -4 111 -12 119 -22 22 -88 12 -88 -13 0
-19 -28 -25 -75 -17 -39 7 -40 8 -43 52 -4 47 -14 60 -48 60 -17 0 -22 8 -27
43 -27 187 -140 294 -276 257 -82 -22 -147 -108 -171 -227 l-13 -62 -51 -3
-51 -3 -5 -100 -5 -100 -135 0 -135 0 5 120 c9 232 9 229 -25 235 l-30 5 -3
89 c-2 57 -8 96 -17 110 -8 11 -15 37 -15 57 0 40 -9 50 -190 203 l-105 89
-137 -144 c-134 -139 -138 -144 -135 -184 2 -39 1 -40 -26 -37 l-29 4 7 -102
c7 -96 7 -102 -14 -116 -21 -15 -21 -17 -21 -475 l0 -459 -29 0 -28 0 -7 103
c-3 56 -11 210 -16 342 -5 132 -16 409 -25 615 -9 206 -20 481 -26 610 -19
479 -29 701 -38 925 -13 298 -40 945 -48 1151 l-6 161 -28 10 c-26 10 -29 16
-29 56 0 37 -4 46 -25 55 -14 7 -36 12 -49 12 -13 0 -37 5 -54 11 l-31 11 -3
114 c-2 84 0 115 10 119 16 6 15 23 -3 41 -11 12 -14 51 -14 202 1 261 0 282
-11 282 -5 0 -10 -21 -11 -47z m4890 -4905 c1 -62 -8 -84 -24 -58 -4 6 -3 57
1 113 7 91 9 97 15 57 4 -25 8 -75 8 -112z"/>
</g>
</svg>
